# xmcd CD database file
#
# Track frame offsets:
#	150
#	17455
#	30772
#	50135
#	67621
#	84418
#	96329
#	110908
#	125931
#	143499
#	160161
#	174477
#	191199
#	206857
#	220308
#
# Disc length: 3208 seconds
#
# Revision: 0
# Processed by: cddbd v1.5.2PL0 Copyright (c) Steve Scherf et al.
# Submitted via: CDex 1.51
#
DISCID=d40c860f
DTITLE=Rodeio Gaúcho - Rodeio Gaúcho Vol.2
DYEAR=2008
DGENRE=Country
TTITLE0=Tchê Barbaridade - Você Virou Saudade
TTITLE1=Luiz Carlos Borges - o "Revorve" do Tropeiro
TTITLE2=Os Monarcas - Brasil de Bombacha
TTITLE3=César Oliveira e Rogério Melo - Pra Bailar de Cola Atada
TTITLE4=Tchê Campeiro - Porque Tu Veio
TTITLE5=Querência - Baile de Lôco
TTITLE6=Os Galponneros - É o Pegadão
TTITLE7=Tchê Garotos - Vai Mexendo o Panelão
TTITLE8=Chiquito e Bordoneio - Frente a Frente
TTITLE9=Walther Morais - Gaviona
TTITLE10=Grupo Rodeio - De Tanto Pelear
TTITLE11=Grupo Reponte - Tribo de Bombacha
TTITLE12=Maate Quente - Todo Mundo Veio Pro Rodeio
TTITLE13=Quero-Quero - Ela Chorou de Amor
TTITLE14=Mano Lima - Ave Maria
EXTD=YEAR: 2008
EXTT0=
EXTT1=
EXTT2=
EXTT3=
EXTT4=
EXTT5=
EXTT6=
EXTT7=
EXTT8=
EXTT9=
EXTT10=
EXTT11=
EXTT12=
EXTT13=
EXTT14=
PLAYORDER=
